<svg width="66" height="65" viewBox="0 0 66 65" fill="none" xmlns="http://www.w3.org/2000/svg">
<path d="M0.0128079 28.8412C0.371429 28.2546 0.915763 28.0944 1.57217 28.1008C3.68227 28.12 5.79557 28.1072 7.90887 28.1072C8.2867 26.7033 8.64852 25.3444 9.02635 23.9341C8.66453 23.7194 8.2899 23.4918 7.90887 23.2707C6.41034 22.4053 4.90542 21.5431 3.4069 20.6745C2.53596 20.1681 2.38867 19.6457 2.87857 18.7835C3.85517 17.0783 4.83498 15.3732 5.82438 13.6745C6.3367 12.7931 6.8266 12.6617 7.70714 13.1649C9.5931 14.245 11.4759 15.3348 13.2369 16.354C14.2712 15.2963 15.2606 14.2867 16.25 13.2771C16.3076 13.3123 16.3653 13.3476 16.4229 13.3828C16.314 13.1841 16.2116 12.979 16.0995 12.7835C15.1197 11.0816 14.1303 9.37963 13.1569 7.6745C12.6798 6.84117 12.8239 6.31232 13.6596 5.82835C15.3374 4.85078 17.0249 3.87963 18.7091 2.91168C19.6665 2.3636 20.1404 2.4854 20.6847 3.42771C21.6613 5.1104 22.6283 6.79629 23.6017 8.47899C23.7074 8.65847 23.8131 8.83796 23.9123 9.00142C25.2315 8.66809 26.5187 8.35719 27.7931 7.99501C27.9404 7.95335 28.1005 7.62963 28.1005 7.43412C28.1229 5.4886 28.1133 3.53989 28.1165 1.59437C28.1197 0.283476 28.4047 0.0014245 29.7303 0.0014245C31.5906 0.0014245 33.451 -0.00178063 35.3113 0.0014245C36.3968 0.00462963 36.765 0.363604 36.7682 1.44053C36.7746 3.43091 36.781 5.41809 36.7618 7.40847C36.7586 7.82514 36.8835 7.97899 37.2997 8.07514C38.5101 8.34758 39.7044 8.68411 40.9564 9.01104C41.885 7.40527 42.8231 5.78027 43.7645 4.15527C43.9534 3.82514 44.1295 3.4854 44.3377 3.16809C44.7283 2.57514 45.2534 2.40207 45.865 2.74501C47.7254 3.79309 49.5729 4.85719 51.4076 5.94694C52.0736 6.34437 52.1569 6.90206 51.731 7.64565C50.7576 9.35399 49.7682 11.0527 48.7884 12.7546C48.6731 12.9533 48.5675 13.1585 48.5355 13.2162C49.5889 14.2642 50.5911 15.2578 51.6702 16.3283C51.9616 16.1617 52.4355 15.8924 52.9062 15.62C54.3502 14.7835 55.7911 13.9405 57.2416 13.1168C58.0197 12.6745 58.548 12.8123 58.9995 13.5816C60.0241 15.3315 61.0392 17.0912 62.0382 18.8572C62.4864 19.6489 62.3295 20.1649 61.5066 20.6424C59.6271 21.7386 57.7443 22.8219 55.868 23.9053C56.201 25.2386 56.5148 26.5463 56.8798 27.8412C56.9182 27.9758 57.2704 28.0944 57.4786 28.0976C59.4029 28.1168 61.3273 28.1072 63.2517 28.1104C64.5421 28.1104 64.8559 28.4277 64.8591 29.7226C64.8591 31.5431 64.8591 33.3636 64.8591 35.1841C64.8591 36.4854 64.5677 36.7739 63.2421 36.7739C61.3177 36.7771 59.3933 36.7835 57.469 36.7674C57.0623 36.7642 56.8894 36.8732 56.7933 37.2995C56.5244 38.511 56.185 39.7098 55.8552 40.979C56.5148 41.3604 57.2032 41.7642 57.8916 42.1649C59.118 42.8732 60.3475 43.5719 61.5643 44.2931C62.3327 44.7482 62.4672 45.2642 62.0318 46.0495C61.6635 46.7162 61.2857 47.3764 60.8887 48.0271C60.5044 48.6553 59.9313 48.8412 59.3869 48.5463C58.8234 48.2418 58.6761 47.6136 59.0219 46.9501C59.1276 46.745 59.2557 46.5463 59.3677 46.3444C59.4702 46.1617 59.5695 45.979 59.7039 45.7354C59.4958 45.6072 59.3069 45.4822 59.1148 45.3732C57.4882 44.4341 55.8552 43.4982 54.2286 42.5527C53.3736 42.0559 53.2776 41.6649 53.5562 40.713C54.0204 39.136 54.4495 37.5463 54.8305 35.9501C55.0867 34.8764 55.3332 34.6168 56.4635 34.6168C58.2823 34.6136 60.101 34.6168 61.9197 34.6168C62.1502 34.6168 62.3776 34.6168 62.6497 34.6168C62.6497 33.1617 62.6497 31.7578 62.6497 30.2835C62.3712 30.2835 62.1214 30.2835 61.8749 30.2835C59.9921 30.2835 58.1126 30.2899 56.2298 30.2803C55.3621 30.2771 55.1027 30.0142 54.885 29.1649C54.4463 27.4501 53.9884 25.7386 53.5081 24.0335C53.284 23.2386 53.4057 22.838 54.1549 22.3989C55.7975 21.4405 57.4497 20.4982 59.0956 19.5463C59.2909 19.4341 59.483 19.3091 59.7103 19.1681C58.9899 17.9181 58.2951 16.713 57.5746 15.463C57.3601 15.5751 57.1776 15.6617 57.0015 15.7642C55.3364 16.7226 53.6714 17.6873 52.0032 18.6424C51.1931 19.1072 50.8313 19.0014 50.1781 18.3251C48.9933 17.0944 47.783 15.8828 46.5534 14.6969C45.8586 14.0271 45.7626 13.6745 46.2557 12.8187C47.2963 11.0046 48.3433 9.19373 49.4256 7.31232C48.1864 6.59117 46.9729 5.88283 45.7145 5.15206C45.5768 5.36681 45.4488 5.55591 45.3367 5.75142C44.3857 7.39886 43.4443 9.0527 42.4901 10.6969C42.0291 11.4886 41.6224 11.5912 40.7451 11.338C39.1281 10.87 37.4983 10.4277 35.8621 10.0271C34.8438 9.77706 34.6069 9.54629 34.6037 8.47258C34.6005 6.63283 34.6037 4.78989 34.6037 2.95014C34.6037 2.72258 34.6037 2.49181 34.6037 2.21937C33.1468 2.21937 31.7443 2.21937 30.2746 2.21937C30.2746 3.25463 30.2746 4.26424 30.2746 5.27386C30.2746 6.37322 30.2842 7.47578 30.2714 8.57514C30.2618 9.50142 29.9865 9.77386 29.0835 10.0014C27.4089 10.4245 25.7406 10.87 24.0788 11.3444C23.2303 11.588 22.83 11.4854 22.385 10.7162C21.3251 8.88924 20.2749 7.05591 19.1734 5.14565C17.931 5.8604 16.7175 6.56232 15.4527 7.28988C15.5712 7.51745 15.6672 7.71937 15.7761 7.91168C16.7239 9.56232 17.6781 11.2066 18.6227 12.8572C19.0837 13.6649 18.9781 14.0463 18.3153 14.6873C17.0729 15.8892 15.8498 17.12 14.649 18.3636C14.0342 18.9982 13.6468 19.1008 12.8719 18.6553C11.2229 17.7098 9.58029 16.7514 7.93128 15.8027C7.73596 15.6905 7.53103 15.588 7.29089 15.463C6.57364 16.7033 5.87562 17.9085 5.14877 19.1649C5.3633 19.2995 5.54901 19.4245 5.74433 19.5367C7.39015 20.4886 9.03916 21.4309 10.685 22.386C11.4727 22.8444 11.5719 23.2514 11.3222 24.1296C10.8515 25.7707 10.4128 27.4213 10.0094 29.0815C9.79162 29.9758 9.50985 30.2739 8.59409 30.2771C6.71133 30.2835 4.83177 30.2803 2.94901 30.2803C2.71847 30.2803 2.49113 30.2803 2.21256 30.2803C2.21256 31.729 2.21256 33.1296 2.21256 34.6136C2.44631 34.6136 2.67044 34.6136 2.89458 34.6136C4.75493 34.6136 6.61527 34.6104 8.47562 34.6168C9.50985 34.62 9.79163 34.9213 10.0222 35.9021C10.3936 37.4822 10.8034 39.0559 11.2677 40.6072C11.5975 41.7033 11.5207 42.0399 10.5121 42.6264C8.74138 43.6521 6.97069 44.6745 5.14557 45.729C5.87241 46.9886 6.57365 48.2065 7.30049 49.4694C8.92709 48.5335 10.5153 47.6168 12.1066 46.7033C13.9094 45.6649 13.8709 45.7001 15.2318 47.2354C16.1411 48.2578 17.1626 49.1873 18.1776 50.1104C19.0165 50.8764 19.1126 51.2001 18.5554 52.1713C17.5276 53.9662 16.4966 55.761 15.4335 57.6072C16.6823 58.3283 17.8958 59.0335 19.1638 59.7674C19.3783 59.4053 19.5704 59.0847 19.7562 58.7578C20.6431 57.2194 21.5236 55.6777 22.417 54.1456C22.8236 53.4501 23.2495 53.3315 24.0148 53.5463C25.7182 54.0206 27.4281 54.479 29.1411 54.9149C29.9672 55.1264 30.2618 55.4373 30.265 56.338C30.2746 58.2226 30.2682 60.104 30.2682 61.9886C30.2682 62.2162 30.2682 62.4469 30.2682 62.713C31.7123 62.713 33.0988 62.713 34.5685 62.713C34.5781 62.5014 34.5973 62.2803 34.5973 62.0591C34.6005 60.1553 34.5941 58.2482 34.6005 56.3444C34.6037 55.3892 34.9015 55.1136 35.83 54.8892C37.447 54.5014 39.0576 54.0783 40.6522 53.6072C41.6448 53.3155 42.0098 53.3989 42.5318 54.3027C43.4635 55.9117 44.3889 57.5239 45.3207 59.136C45.436 59.3348 45.564 59.5239 45.7081 59.7578C46.1212 59.5207 46.4958 59.2931 46.8832 59.0848C47.5493 58.7258 48.1736 58.8476 48.4906 59.386C48.8108 59.9277 48.6155 60.5559 47.9783 60.9437C47.3475 61.3283 46.7039 61.6905 46.0571 62.0527C45.231 62.5142 44.6963 62.3732 44.2096 61.5399C43.2106 59.8219 42.2116 58.104 41.2382 56.3732C41.0172 55.979 40.8315 55.8508 40.3576 56.0046C39.1985 56.3796 38.0106 56.6713 36.7586 57.0174C36.7586 57.2065 36.7586 57.4341 36.7586 57.6617C36.7586 59.5239 36.7586 61.386 36.7586 63.2482C36.7586 64.5944 36.448 64.9117 35.132 64.9117C33.2717 64.9117 31.4113 64.9149 29.551 64.9117C28.4687 64.9085 28.1133 64.5559 28.1101 63.4597C28.1037 61.5335 28.1069 59.6072 28.1069 57.6809C28.1069 57.4501 28.1069 57.2226 28.1069 57.0303C26.7653 56.6489 25.4909 56.2707 24.2069 55.9469C24.066 55.9117 23.781 56.136 23.6786 56.3091C22.6892 57.9822 21.7286 59.6745 20.7552 61.3572C20.1308 62.4405 19.6761 62.5655 18.6002 61.9469C16.9704 61.0078 15.3438 60.0687 13.7172 59.1232C12.7919 58.5847 12.6574 58.0783 13.1985 57.1392C14.1559 55.4726 15.1197 53.8059 16.0803 52.1392C16.1956 51.9405 16.2948 51.7354 16.3429 51.6489C15.2862 50.6136 14.2776 49.6264 13.1985 48.5687C12.6702 48.8732 11.9754 49.2707 11.2837 49.6713C10.0574 50.3796 8.84064 51.0976 7.60788 51.7963C6.87783 52.2098 6.30468 52.0655 5.88522 51.3476C4.84778 49.5783 3.82635 47.8027 2.81453 46.0174C2.38867 45.2674 2.55837 44.7322 3.34286 44.2739C5.21921 43.1777 7.10517 42.0944 9.01995 40.9854C8.64852 39.5944 8.2803 38.2194 7.89606 36.7803C6.71133 36.7803 5.50739 36.7803 4.30665 36.7803C3.39729 36.7803 2.48793 36.7578 1.57857 36.7867C0.922167 36.8091 0.377832 36.6553 0 36.088C0.0128079 33.6649 0.0128079 31.2514 0.0128079 28.8412Z" fill="#FF9110"/>
<path d="M31.8147 34.8701C32.8585 33.822 33.8448 32.838 34.8598 31.8188C34.7349 31.6842 34.5844 31.5143 34.4243 31.3572C32.0164 28.947 29.6085 26.5399 27.2039 24.1297C26.2625 23.1874 26.3906 22.4438 27.5785 21.8797C34.9847 18.3669 43.646 23.3188 44.4465 31.5111C44.6258 33.3604 44.3824 35.1425 43.7228 36.8637C43.5627 37.2771 43.6108 37.5207 43.9246 37.838C50.527 44.4278 57.1167 51.0271 63.7095 57.6297C65.0127 58.9342 65.4322 60.463 64.5292 61.7322C63.7608 62.8124 62.7457 63.7643 61.6891 64.5784C60.7637 65.2899 59.1019 65.0271 58.1893 64.2835C57.9428 64.0848 57.7154 63.8637 57.4913 63.6393C50.9561 57.104 44.4177 50.5688 37.8952 44.0175C37.527 43.6489 37.2517 43.5944 36.7585 43.7803C28.8369 46.806 20.2652 40.4854 20.7743 32.0175C20.8704 30.4342 21.2354 28.931 21.9238 27.5047C22.4489 26.4117 23.195 26.2771 24.0531 27.1329C26.4802 29.5528 28.8977 31.9822 31.3184 34.4053C31.4849 34.5624 31.6546 34.7162 31.8147 34.8701ZM23.448 29.6105C22.4618 32.1874 22.9549 35.697 24.527 38.0111C27.2615 42.0399 32.4263 43.4374 36.6785 41.4598C37.748 40.963 37.9593 41.0239 38.7918 41.8572C45.5031 48.5752 52.2145 55.2931 58.9258 62.0111C59.0763 62.1617 59.2172 62.3188 59.3773 62.4566C59.9248 62.9342 60.4819 62.9406 61.0199 62.4502C61.3785 62.1233 61.7115 61.7675 62.0541 61.4213C63.0531 60.4213 63.0499 60.0239 62.0381 59.0111C55.3396 52.3092 48.6443 45.604 41.9457 38.9021C40.9499 37.9053 40.9211 37.8348 41.5071 36.5303C42.0546 35.3124 42.3524 34.0367 42.3332 32.7194C42.2595 28.2258 39.7556 24.7931 35.5002 23.3637C33.5534 22.7098 31.581 22.7483 29.4132 23.4758C29.7174 23.697 29.9287 23.8092 30.0888 23.9726C32.3815 26.2579 34.6677 28.5463 36.9507 30.838C37.7127 31.604 37.7127 32.1169 36.9443 32.8861C35.6186 34.2226 34.2866 35.5528 32.9546 36.8829C32.0773 37.7579 31.613 37.7547 30.7228 36.8637C28.4654 34.604 26.2081 32.3444 23.9507 30.088C23.797 29.9278 23.6273 29.7771 23.448 29.6105Z" fill="#FF9110"/>
<path d="M14.0791 32.4085C14.1207 23.6649 20.2077 16.2098 28.805 14.4373C29.9352 14.2034 31.1072 14.1617 32.2631 14.0784C32.9867 14.0271 33.4606 14.4437 33.5022 15.0623C33.5439 15.6649 33.1276 16.1264 32.4072 16.213C31.4434 16.3284 30.4604 16.3284 29.5158 16.5143C23.7618 17.6617 19.6569 20.9566 17.4444 26.3668C15.3599 31.4726 15.8306 36.5078 18.8084 41.1649C21.7414 45.7514 26.0352 48.2002 31.469 48.6296C31.8052 48.6553 32.1478 48.6328 32.4808 48.6809C33.1436 48.7739 33.5471 49.2482 33.5022 49.8348C33.4574 50.4309 33.0059 50.8187 32.3207 50.8187C30.4252 50.8155 28.568 50.5399 26.7813 49.9213C20.9313 47.8957 16.9865 43.9405 14.9756 38.0816C14.3417 36.2514 14.0727 34.3476 14.0791 32.4085Z" fill="#FF9110"/>
<path d="M39.9829 16.1809C39.9605 17.0559 39.4354 17.5687 38.795 17.4148C37.5911 17.1264 36.4063 16.7674 35.2312 16.3796C34.7221 16.2129 34.5012 15.6264 34.6741 15.12C34.8502 14.6007 35.26 14.261 35.782 14.3892C37.0019 14.6873 38.2122 15.043 39.3938 15.4661C39.6916 15.5751 39.8645 16.0334 39.9829 16.1809Z" fill="#FF9110"/>
</svg>
