<svg width="86" height="87" viewBox="0 0 86 87" fill="none" xmlns="http://www.w3.org/2000/svg">
<path d="M70.6051 78.4042C70.6051 78.0179 70.6051 77.6969 70.6051 77.3787C70.6051 71.2775 70.6051 65.179 70.6051 59.0777C70.6051 58.8112 70.5888 58.5419 70.6133 58.278C70.6788 57.5599 71.0878 57.1356 71.8049 57.073C72.4621 57.0159 73.002 57.5545 73.0728 58.2944C73.0974 58.5582 73.081 58.8275 73.081 59.0941C73.081 65.3422 73.081 71.5903 73.081 77.8384C73.081 78.192 73.081 78.5456 73.081 79.038C73.4437 79.038 73.7545 79.038 74.0681 79.038C77.452 79.038 80.8359 79.038 84.2198 79.0407C84.5171 79.0407 84.9015 78.9509 85.0897 79.1005C85.4714 79.4052 85.9541 79.8214 85.9977 80.2321C86.0359 80.5884 85.5941 81.0971 85.2342 81.361C84.9697 81.5541 84.4925 81.4942 84.1108 81.497C78.1446 81.5187 72.173 81.3827 66.215 81.6003C62.793 81.7254 59.39 82.4082 55.9815 82.8625C50.4571 83.5996 44.9354 84.3585 39.411 85.1093C37.3823 85.384 35.3536 85.6506 33.3303 85.9416C31.7352 86.1701 31.2607 85.7811 31.2553 84.1763C31.2526 83.3766 31.2471 82.5768 31.2362 81.7771C31.2362 81.7227 31.198 81.671 31.1326 81.5024C30.8026 81.5024 30.4291 81.5024 30.0555 81.5024C20.6782 81.5024 11.3009 81.5024 1.92354 81.4997C1.54179 81.4997 1.05643 81.5731 0.800115 81.3773C0.426549 81.0917 -0.0260925 80.5776 0.00117512 80.1886C0.0284427 79.7969 0.549254 79.3753 0.94736 79.1005C1.17095 78.9455 1.57997 79.0461 1.90718 79.0434C5.55558 79.0407 9.20399 79.0434 13.016 79.0434C13.016 78.5946 13.016 78.1947 13.016 77.7976C13.016 53.9585 13.016 30.1194 13.016 6.28025C13.016 5.98376 13.0105 5.68727 13.0187 5.39077C13.0542 4.31089 13.455 3.91919 14.5621 3.91647C19.5793 3.91103 24.5938 3.91375 29.611 3.91375C30.1128 3.91375 30.6145 3.91375 31.258 3.91375C31.258 3.15212 31.2553 2.42584 31.258 1.70229C31.2635 0.315033 31.7052 -0.112026 33.1067 0.0239804C36.826 0.383036 40.5453 0.772013 44.2619 1.14739C49.8981 1.71589 55.5343 2.2844 61.1733 2.8529C64.7153 3.20924 68.2574 3.56557 71.7967 3.92735C72.6393 4.01439 73.081 4.49313 73.081 5.33637C73.0838 11.9109 73.0865 18.4854 73.0783 25.0599C73.0783 25.9358 72.5493 26.488 71.8185 26.4744C71.0714 26.4608 70.6079 25.8869 70.6079 24.9239C70.6024 19.0322 70.6051 13.1377 70.6051 7.24589C70.6051 6.95484 70.6051 6.66379 70.6051 6.28841C58.3075 5.04804 46.0725 3.8131 33.783 2.57273C33.783 29.5291 33.783 56.4039 33.783 83.3983C46.0643 81.7254 58.2993 80.0689 70.6051 78.4042ZM22.4915 13.5593C22.4915 35.4073 22.4915 57.1737 22.4915 78.9645C25.4391 78.9645 28.324 78.9645 31.1871 78.9645C31.1871 57.122 31.1871 35.3556 31.1871 13.5593C28.2777 13.5593 25.4391 13.5593 22.4915 13.5593ZM19.9774 79.0135C19.9774 78.5538 19.9774 78.1757 19.9774 77.8003C19.9774 56.2216 19.9774 34.6429 19.9774 13.0642C19.9774 11.337 20.2419 11.0785 22.0034 11.0785C24.7629 11.0785 27.5223 11.0785 30.2818 11.0758C30.5927 11.0758 30.9035 11.0459 31.198 11.0323C31.198 9.43015 31.198 7.93408 31.198 6.44618C25.9381 6.44618 20.7354 6.44618 15.5492 6.44618C15.5492 30.6743 15.5492 54.8344 15.5492 79.0162C17.0271 79.0135 18.4177 79.0135 19.9774 79.0135Z" fill="#FF9110"/>
<path d="M45.4912 43.0126C45.494 45.4306 43.5008 47.4325 41.0823 47.438C38.612 47.4434 36.5943 45.4388 36.597 42.9881C36.5998 40.5727 38.5929 38.5763 41.0169 38.5627C43.4899 38.5491 45.4885 40.5347 45.4912 43.0126ZM41.0032 41.0351C39.9072 41.0515 39.051 41.9409 39.0728 43.0425C39.0946 44.1359 39.9835 44.9845 41.0878 44.9655C42.1893 44.9465 43.0346 44.0652 43.0128 42.9609C42.9909 41.8593 42.113 41.0188 41.0032 41.0351Z" fill="#FF9110"/>
<path d="M73.0754 47.9335C73.0754 48.5237 73.1081 49.1167 73.0645 49.7042C73.01 50.4549 72.4728 50.9445 71.7884 50.8928C71.0604 50.8384 70.6378 50.4059 70.6187 49.6906C70.5833 48.4802 70.5833 47.2698 70.616 46.0594C70.6351 45.3169 71.1859 44.7729 71.8457 44.8164C72.6092 44.8654 73.0291 45.3196 73.07 46.0757C73.1027 46.6932 73.0781 47.3133 73.0754 47.9335Z" fill="#FF9110"/>
<path d="M70.6106 35.6006C70.6106 35.0103 70.5752 34.4146 70.6188 33.8271C70.6733 33.1172 71.0714 32.6739 71.8158 32.6575C72.5629 32.6412 73.0209 33.0791 73.0537 33.7782C73.1137 35.0158 73.1082 36.2615 73.0537 37.4991C73.0209 38.2117 72.5492 38.6442 71.8185 38.6306C71.0905 38.617 70.6679 38.1764 70.6188 37.4583C70.5779 36.8436 70.6106 36.2207 70.6106 35.6006Z" fill="#FF9110"/>
</svg>
