<svg width="103" height="63" viewBox="0 0 103 63" fill="none" xmlns="http://www.w3.org/2000/svg">
<path d="M69.5658 49.1211H37.4888V61.4689H69.5658V49.1211Z" fill="white" stroke="#F28F22" stroke-width="2" stroke-miterlimit="10"/>
<path d="M31.9221 16.1992C31.9221 16.1992 28.2464 19.5764 29.595 25.0519C29.595 25.0519 32.5476 34.1978 40.0482 41.2915V49.121H67.3362V41.7801L71.0521 38.5523C71.0521 38.5523 73.7206 36.4944 73.7034 32.9245V12.6523H59.276" fill="white"/>
<path d="M31.9221 16.1992C31.9221 16.1992 28.2464 19.5764 29.595 25.0519C29.595 25.0519 32.5476 34.1978 40.0482 41.2915V49.121H67.3362V41.7801L71.0521 38.5523C71.0521 38.5523 73.7206 36.4944 73.7034 32.9245V12.6523H59.276" stroke="#F28F22" stroke-width="2" stroke-miterlimit="10"/>
<path d="M75.6718 9.5998C75.6029 9.59405 75.537 9.5883 75.4623 9.5883H28.2263C27.925 9.5883 27.6553 9.61704 27.3999 9.66591C25.3713 4.58708 20.4158 1 14.6225 1C8.96977 1 4.12049 4.41463 2 9.29513H14.6225V20.2748H2C4.12049 25.1524 8.96977 28.5671 14.6225 28.5671C20.4158 28.5671 25.3713 24.9771 27.3999 19.9012C27.6553 19.95 27.9279 19.9816 28.2263 19.9816H75.4652C75.5083 19.9816 75.5427 19.973 75.5857 19.973C77.6 25.072 82.5698 28.6849 88.3775 28.6849C94.0274 28.6849 98.8824 25.2703 101 20.3898H88.3775V9.4101H101C98.8795 4.5296 94.0274 1.11784 88.3775 1.11784C82.6531 1.11784 77.7464 4.6187 75.6718 9.5998Z" fill="#FDFDFD" stroke="#F28F22" stroke-width="2" stroke-miterlimit="10"/>
<path d="M72.1884 13.4854C72.9344 13.4854 73.5427 14.0947 73.5427 14.842C73.5427 15.5922 72.9344 16.1987 72.1884 16.1987H30.8145C30.0627 16.1987 29.4573 15.5922 29.4573 14.842C29.4573 14.0918 30.0627 13.4854 30.8145 13.4854H72.1884Z" fill="white" stroke="#F28F22" stroke-width="2" stroke-miterlimit="10"/>
<path d="M15.3112 4.63281C20.8749 4.76215 25.2766 9.38685 25.1475 14.96" stroke="#F28F22" stroke-width="2" stroke-miterlimit="10"/>
<path d="M90.3402 25.0518C84.7793 24.9196 80.3747 20.2978 80.5039 14.7246" stroke="#F28F22" stroke-width="2" stroke-miterlimit="10"/>
<path d="M48.3264 14.7138C48.3264 17.0046 46.4728 18.8585 44.1888 18.8585C41.9018 18.8585 40.0482 17.0046 40.0482 14.7138V6.95328C40.0482 4.66249 41.9018 2.80859 44.1888 2.80859C46.4728 2.80859 48.3264 4.66249 48.3264 6.95328V14.7138Z" fill="white" stroke="#F28F22" stroke-width="2" stroke-miterlimit="10"/>
<path d="M57.1527 14.1268C57.1527 16.4147 55.2991 18.2715 53.0151 18.2715C50.731 18.2715 48.8745 16.4147 48.8745 14.1268V5.14469C48.8745 2.8539 50.7281 1 53.0151 1C55.2991 1 57.1527 2.8539 57.1527 5.14469V14.1268Z" fill="white" stroke="#F28F22" stroke-width="2" stroke-miterlimit="10"/>
<path d="M65.4252 12.6415C65.4252 14.9294 63.5744 16.7861 61.2875 16.7861C59.0035 16.7861 57.1527 14.9294 57.1527 12.6415V6.95328C57.1527 4.66249 59.0035 2.80859 61.2875 2.80859C63.5716 2.80859 65.4252 4.66249 65.4252 6.95328V12.6415Z" fill="white" stroke="#F28F22" stroke-width="2" stroke-miterlimit="10"/>
<path d="M73.7033 12.652C73.7033 14.9399 71.8497 16.7967 69.5685 16.7967C67.2845 16.7967 65.428 14.9399 65.428 12.652V8.7775C65.428 6.48671 67.2816 4.63281 69.5685 4.63281C71.8526 4.63281 73.7033 6.48671 73.7033 8.7775V12.652Z" fill="white" stroke="#F28F22" stroke-width="2" stroke-miterlimit="10"/>
<path d="M48.5101 34.1989C50.0767 21.7217 39.6838 18.8589 39.6838 18.8589H51.7037C57.1527 17.6834 57.1527 10.834 57.1527 10.834H38.272L31.9221 16.2002C31.9221 16.2002 28.4903 19.9454 29.595 25.053C29.595 25.053 32.1803 33.4659 40.0482 41.2926" fill="white"/>
<path d="M48.5101 34.1989C50.0767 21.7217 39.6838 18.8589 39.6838 18.8589H51.7037C57.1527 17.6834 57.1527 10.834 57.1527 10.834H38.272L31.9221 16.2002C31.9221 16.2002 28.4903 19.9454 29.595 25.053C29.595 25.053 32.1803 33.4659 40.0482 41.2926" stroke="#F28F22" stroke-width="2" stroke-miterlimit="10" stroke-linejoin="round"/>
<path d="M66.8025 55.2954C66.8025 56.5113 65.8154 57.4971 64.6016 57.4971C63.3879 57.4971 62.4037 56.5113 62.4037 55.2954C62.4037 54.0825 63.3879 53.0938 64.6016 53.0938C65.8125 53.0938 66.8025 54.0825 66.8025 55.2954Z" fill="white" stroke="#F28F22" stroke-width="2" stroke-miterlimit="10"/>
</svg>
