<svg width="86" height="77" viewBox="0 0 86 77" fill="none" xmlns="http://www.w3.org/2000/svg">
<path d="M85.2341 5.4035H65.266V71.5965H85.2341V5.4035Z" stroke="#FF9110" stroke-width="2" stroke-miterlimit="10"/>
<path d="M75.25 5.4035V71.5965" stroke="#FF9110" stroke-width="2" stroke-miterlimit="10"/>
<path d="M65.266 62.424H85.2341" stroke="#FF9110" stroke-width="2" stroke-miterlimit="10"/>
<path d="M65.266 53.4001H85.2341" stroke="#FF9110" stroke-width="2" stroke-miterlimit="10"/>
<path d="M66.0319 44.5114H86" stroke="#FF9110" stroke-width="2" stroke-miterlimit="10"/>
<path d="M64.5 35.4875H84.4681" stroke="#FF9110" stroke-width="2" stroke-miterlimit="10"/>
<path d="M64.5 24.9642H84.4681" stroke="#FF9110" stroke-width="2" stroke-miterlimit="10"/>
<path d="M64.5 14.4274H84.4681" stroke="#FF9110" stroke-width="2" stroke-miterlimit="10"/>
<path d="M20.7341 5.4035H0.765991V71.5965H20.7341V5.4035Z" stroke="#FF9110" stroke-width="2" stroke-miterlimit="10"/>
<path d="M10.75 5.4035V71.5965" stroke="#FF9110" stroke-width="2" stroke-miterlimit="10"/>
<path d="M0.765991 62.424H20.7341" stroke="#FF9110" stroke-width="2" stroke-miterlimit="10"/>
<path d="M0.765991 53.4001H20.7341" stroke="#FF9110" stroke-width="2" stroke-miterlimit="10"/>
<path d="M1.53186 44.5114H21.5" stroke="#FF9110" stroke-width="2" stroke-miterlimit="10"/>
<path d="M0 35.4875H19.9681" stroke="#FF9110" stroke-width="2" stroke-miterlimit="10"/>
<path d="M0 24.9642H19.9681" stroke="#FF9110" stroke-width="2" stroke-miterlimit="10"/>
<path d="M0 14.4274H19.9681" stroke="#FF9110" stroke-width="2" stroke-miterlimit="10"/>
<path d="M65.1719 0.675415H20.8281V76.3245H65.1719V0.675415Z" stroke="#FF9110" stroke-width="2" stroke-miterlimit="10"/>
<path d="M61.1406 6.07892H24.8594V35.7982H61.1406V6.07892Z" stroke="#FF9110" stroke-width="2" stroke-miterlimit="10"/>
<path d="M61.1406 41.2017H24.8594V70.921H61.1406V41.2017Z" stroke="#FF9110" stroke-width="2" stroke-miterlimit="10"/>
<path d="M43 6.07892V35.7982" stroke="#FF9110" stroke-width="2" stroke-miterlimit="10"/>
<path d="M24.8594 20.9386H61.1406" stroke="#FF9110" stroke-width="2" stroke-miterlimit="10"/>
<path d="M24.8594 56.0614H61.1406" stroke="#FF9110" stroke-width="2" stroke-miterlimit="10"/>
<path d="M43 41.2017V70.921" stroke="#FF9110" stroke-width="2" stroke-miterlimit="10"/>
</svg>
